<?xml version="1.0" encoding="UTF-8" standalone="no"?>
<!-- Created with Inkscape (http://www.inkscape.org/) -->

<svg
   xmlns:dc="http://purl.org/dc/elements/1.1/"
   xmlns:cc="http://creativecommons.org/ns#"
   xmlns:rdf="http://www.w3.org/1999/02/22-rdf-syntax-ns#"
   xmlns:svg="http://www.w3.org/2000/svg"
   xmlns="http://www.w3.org/2000/svg"
   xmlns:sodipodi="http://sodipodi.sourceforge.net/DTD/sodipodi-0.dtd"
   xmlns:inkscape="http://www.inkscape.org/namespaces/inkscape"
   width="195mm"
   height="69mm"
   viewBox="0 0 195 69"
   version="1.1"
   id="svg8"
   inkscape:version="0.92.4 (5da689c313, 2019-01-14)"
   sodipodi:docname="logo.svg">
  <defs
     id="defs2">
    <filter
       inkscape:collect="always"
       style="color-interpolation-filters:sRGB"
       id="filter1781"
       x="-0.095478192"
       width="1.1909564"
       y="-0.11812235"
       height="1.2362447">
      <feGaussianBlur
         inkscape:collect="always"
         stdDeviation="2.3609036"
         id="feGaussianBlur1783" />
    </filter>
    <filter
       inkscape:collect="always"
       style="color-interpolation-filters:sRGB"
       id="filter1856"
       x="-0.045857374"
       width="1.0917147"
       y="-0.053068239"
       height="1.1061364">
      <feGaussianBlur
         inkscape:collect="always"
         stdDeviation="1.1144085"
         id="feGaussianBlur1858" />
    </filter>
    <filter
       inkscape:collect="always"
       style="color-interpolation-filters:sRGB"
       id="filter1931"
       x="-0.052513234"
       width="1.1050265"
       y="-0.12077899"
       height="1.241558">
      <feGaussianBlur
         inkscape:collect="always"
         stdDeviation="1.3332382"
         id="feGaussianBlur1933" />
    </filter>
    <filter
       inkscape:collect="always"
       style="color-interpolation-filters:sRGB"
       id="filter2039"
       x="-0.072221063"
       width="1.1444421"
       y="-0.19634727"
       height="1.3926945">
      <feGaussianBlur
         inkscape:collect="always"
         stdDeviation="2.1674107"
         id="feGaussianBlur2041" />
    </filter>
  </defs>
  <sodipodi:namedview
     id="base"
     pagecolor="#2d2d2d"
     bordercolor="#666666"
     borderopacity="1.0"
     inkscape:pageopacity="0"
     inkscape:pageshadow="2"
     inkscape:zoom="0.39169922"
     inkscape:cx="-94.462317"
     inkscape:cy="607.03691"
     inkscape:document-units="mm"
     inkscape:current-layer="layer1"
     showgrid="false"
     inkscape:snap-global="false"
     inkscape:window-width="1360"
     inkscape:window-height="705"
     inkscape:window-x="-8"
     inkscape:window-y="-8"
     inkscape:window-maximized="1"
     units="mm"
     height="100mm" />
  <metadata
     id="metadata5">
    <rdf:RDF>
      <cc:Work
         rdf:about="">
        <dc:format>image/svg+xml</dc:format>
        <dc:type
           rdf:resource="http://purl.org/dc/dcmitype/StillImage" />
        <dc:title></dc:title>
      </cc:Work>
    </rdf:RDF>
  </metadata>
  <g
     inkscape:label="Layer 1"
     inkscape:groupmode="layer"
     id="layer1"
     transform="translate(0,-228)">
    <g
       id="g2062"
       transform="translate(-6.7547578,118.20826)">
      <path
         transform="matrix(0.90571856,0,0,0.87749064,36.073049,12.774526)"
         sodipodi:nodetypes="ccccccccccccccccccccccccccccccccccccccccccccccccccccccc"
         inkscape:connector-curvature="0"
         id="path837-2"
         d="m 65.792643,184.5566 c -2.471302,-0.26607 -4.965922,-0.78553 -7.142435,-2.03412 -0.360265,-1.03722 -1.862897,-2.03554 -2.923575,-2.11251 -1.968441,-0.35959 -3.392139,-2.55425 -4.555101,-4.14498 -3.241988,-5.07508 -2.980314,-12.3313 1.17373,-16.83123 2.393451,-3.11945 5.833012,-5.17158 8.868931,-7.55006 3.609622,-3.43311 5.512864,-8.31251 9.295021,-11.56779 1.066188,-0.74269 -2.534867,-0.86153 -3.175441,-1.91459 -0.574844,-0.84142 -4.089262,-2.7127 -1.98071,-3.47281 3.476959,-1.60303 7.757487,-0.38112 10.35552,2.29172 2.173298,0.85213 -0.271962,1.84401 -0.3751,2.17172 2.187096,0.39066 3.302056,-2.99477 5.510639,-3.60065 1.305248,-0.89017 6.394103,-2.43163 4.9593,0.60144 -1.80916,0.46927 -4.293122,0.1521 -6.0828,1.41902 -1.026475,0.44038 -4.280387,3.19467 -1.29336,1.68863 2.175528,-0.74601 4.67765,-0.18606 6.321501,1.38526 2.927382,2.14929 4.472869,5.65229 7.541149,7.67162 3.01416,2.17052 6.696774,3.24686 9.406728,5.86465 4.5416,4.02497 6.32223,10.52451 5.31115,16.43866 -0.83458,3.62899 -3.18521,6.73925 -6.14967,8.93091 -1.548801,0.76412 -2.042445,0.1856 -3.084327,1.01319 -1.663639,0.72073 -2.443281,2.33411 -4.48284,2.40064 -4.081288,1.14777 -8.618268,0.52536 -12.12133,-1.88778 -1.377172,-0.39024 -2.505165,-3.54025 -3.553971,-1.21994 -2.951234,3.27721 -7.450764,4.82813 -11.823009,4.459 z m 24.43915,-2.3946 c 1.381379,-0.4317 2.745798,-0.53845 4.41838,-1.35723 0.211217,-2.58061 -1.125233,-5.02512 -1.951339,-7.41778 -2.515058,-0.74401 -4.551701,-2.84538 -4.83911,-5.50973 -0.559451,-2.57406 -0.91135,-5.22227 -1.127255,-7.82521 -1.730798,-3.54703 -3.446396,-7.10713 -5.370957,-10.55369 -0.870043,1.85502 -0.932122,5.19146 -0.668383,7.58566 0.697056,3.98947 2.401859,7.84188 1.981317,11.97518 -0.115533,3.09287 -1.460733,5.96191 -3.071143,8.54101 1.463445,2.13112 3.963522,3.14064 6.242441,4.17581 1.415259,0.39505 2.923276,0.48283 4.386049,0.38598 z m 9.46024,-3.26291 c 3.036977,-2.30554 5.633947,-5.55129 5.884657,-9.49627 0.34013,-2.78775 -0.29236,-5.58082 -0.96916,-8.2507 -1.13547,-2.49252 -2.52015,-4.89242 -4.724806,-6.60369 -2.336814,-1.85421 -5.116751,-2.96823 -7.607282,-4.55846 -3.497651,-2.38449 -5.428734,-6.44615 -9.011833,-8.70998 -1.242785,-0.62451 -6.065255,-0.92251 -3.210882,1.11039 1.535776,2.53159 0.997915,5.73098 2.85836,8.1849 1.527357,3.15246 2.973194,6.3593 4.691731,9.4094 2.282688,2.02838 4.524965,4.20216 6.253039,6.73095 1.889514,2.58563 -0.689131,5.99762 2.005459,8.23617 1.001567,1.21897 2.301134,4.12806 3.830717,3.94729 z m -9.05664,-8.49509 0.06352,-1.3348 c -0.549495,-1.47348 -1.630535,-3.31749 -1.158806,-0.68751 0.09242,0.59793 0.202041,2.12182 1.095286,2.02231 z m 2.303849,-1.9922 c 0.309388,-1.38731 -3.707056,-4.14451 -1.808829,-1.46528 0.321328,0.54026 1.021403,1.93021 1.808829,1.46528 z"
         style="fill:#ffffff;stroke-width:0.05912612;filter:url(#filter1856)" />
      <path
         sodipodi:nodetypes="ccccccccccccccccccccccccccccccccccccccccccccccccccccccc"
         inkscape:connector-curvature="0"
         id="path837"
         d="m 95.198004,174.0497 c -2.242331,-0.23041 -4.505821,-0.68025 -6.480676,-1.7615 -0.326886,-0.8982 -1.690296,-1.76272 -2.652701,-1.82938 -1.786062,-0.31139 -3.077851,-2.21191 -4.133062,-3.58944 -2.941613,-4.39489 -2.704183,-10.67859 1.064982,-14.57541 2.171693,-2.70136 5.292573,-4.47845 8.047209,-6.53816 3.275184,-2.97298 5.002087,-7.19841 8.433821,-10.0174 0.967403,-0.64315 -2.300007,-0.74606 -2.881231,-1.65799 -0.521584,-0.72865 -3.710385,-2.34913 -1.797194,-3.00736 3.154813,-1.38818 7.038748,-0.33004 9.396068,1.98457 1.97194,0.73792 -0.24677,1.59686 -0.34035,1.88065 1.98446,0.3383 2.99612,-2.59339 5.00007,-3.11807 1.18431,-0.77086 5.80168,-2.10573 4.49981,0.52083 -1.64154,0.40638 -3.89536,0.13172 -5.51922,1.22884 -0.93137,0.38136 -3.8838,2.7665 -1.17352,1.46231 1.97396,-0.64603 4.24425,-0.16112 5.7358,1.1996 2.65615,1.86123 4.05845,4.89473 6.84245,6.64342 2.73489,1.87962 6.0763,2.8117 8.53518,5.07864 4.12081,3.48552 5.73646,9.11395 4.81906,14.23545 -0.75725,3.14261 -2.89009,5.83602 -5.57989,7.73394 -1.40531,0.66171 -1.85321,0.16072 -2.79856,0.87739 -1.5095,0.62414 -2.21691,2.02128 -4.0675,2.0789 -3.70315,0.99393 -7.81977,0.45494 -10.99827,-1.63477 -1.24957,-0.33794 -2.27306,-3.06577 -3.22469,-1.05644 -2.67779,2.83798 -6.760436,4.18104 -10.727586,3.86138 z m 22.174826,-2.07366 c 1.25339,-0.37384 2.49139,-0.46629 4.00901,-1.17533 0.19164,-2.23474 -1.02098,-4.35162 -1.77055,-6.4236 -2.28203,-0.6443 -4.12998,-2.46403 -4.39076,-4.77129 -0.50761,-2.22907 -0.82691,-4.52235 -1.02281,-6.77643 -1.57044,-3.07163 -3.12708,-6.15459 -4.87333,-9.13922 -0.78943,1.6064 -0.84576,4.49567 -0.60645,6.56899 0.63247,3.45477 2.17932,6.79086 1.79774,10.37019 -0.10483,2.67835 -1.32539,5.16286 -2.7866,7.3963 1.32786,1.84549 3.5963,2.71971 5.66407,3.61614 1.28414,0.3421 2.65243,0.41812 3.97968,0.33425 z m 8.58373,-2.8256 c 2.7556,-1.99654 5.11196,-4.80727 5.33944,-8.22352 0.30861,-2.41412 -0.26528,-4.83285 -0.87937,-7.14489 -1.03027,-2.15846 -2.28665,-4.23671 -4.28705,-5.71863 -2.1203,-1.6057 -4.64267,-2.57041 -6.90245,-3.94751 -3.17359,-2.0649 -4.92576,-5.5822 -8.17687,-7.54261 -1.12764,-0.54081 -5.5033,-0.79887 -2.91339,0.96157 1.39348,2.19229 0.90546,4.96288 2.59353,7.08791 1.38584,2.72995 2.69772,5.50699 4.25703,8.14829 2.07119,1.75653 4.10572,3.63896 5.67368,5.82883 1.71445,2.23909 -0.62528,5.19378 1.81965,7.13231 0.90877,1.0556 2.08794,3.57479 3.4758,3.41825 z m -8.21753,-7.35653 0.0576,-1.1559 c -0.49858,-1.27599 -1.47946,-2.87286 -1.05144,-0.59536 0.0839,0.51779 0.18332,1.83744 0.99381,1.75126 z m 2.0904,-1.72519 c 0.28072,-1.20137 -3.3636,-3.58904 -1.64124,-1.26889 0.29155,0.46785 0.92677,1.67151 1.64124,1.26889 z"
         style="fill:#ffffff;stroke-width:0.05241057" />
      <path
         sodipodi:nodetypes="ccccccccccccccccccccccccccccccccccccccccccc"
         inkscape:connector-curvature="0"
         d="m 123.98714,116.23186 c -3.29863,-5.3e-4 -6.58739,1.27206 -9.02477,3.70985 -2.59482,2.31571 -4.02059,5.7213 -5.14594,9.03872 -0.35203,-1.0115 -0.74709,-3.40451 -1.69189,-4.67206 -1.52624,-2.7232 -3.60523,-5.19239 -6.19755,-6.6642 -2.373132,-1.80531 -5.413827,-1.36664 -8.154024,-1.33583 -3.119297,0.43682 -5.826029,2.43572 -8.052223,4.7072 -1.810094,2.12503 -3.2912,4.62731 -4.253487,7.35304 -1.286184,2.96881 -1.212638,6.34144 -1.273307,9.53637 0.03591,4.60672 0.696833,9.28487 2.484086,13.48032 1.85253,4.67551 5.055034,8.50777 8.283215,12.11812 0.533582,0.37305 -0.426863,-0.66496 -0.397391,-0.71779 -3.573833,-4.26489 -5.902812,-9.70173 -6.405811,-15.46262 -0.06675,-3.77938 -0.567127,-7.76939 0.754994,-11.3714 1.340037,-3.81107 3.58735,-7.51866 7.01766,-9.49813 2.22623,-1.8161 5.116494,-1.56948 7.753529,-1.50016 1.799279,-0.0863 3.319089,1.0592 4.728909,2.09031 1.41821,1.14945 2.58508,2.43081 3.54221,4.03355 0.10695,-0.0523 0.29502,-0.12847 0.39065,-0.17041 1.05034,-0.29296 2.22147,-0.73448 3.13437,-0.004 0.0412,0.0339 0.24616,0.29229 0.26047,0.33839 0.0258,-0.0279 0.059,-0.0753 0.085,-0.0958 1.59517,-3.0562 4.1492,-4.97448 7.19989,-5.91886 2.31492,-0.48308 4.84661,-0.52437 7.07863,0.31729 3.24844,1.26521 6.02266,3.96673 7.55923,7.31635 2.42238,4.52658 2.142,9.99201 1.93322,15.03525 -0.32706,3.565 -1.59765,7.08935 -3.25613,10.16424 0.14573,0.28059 0.0864,0.2198 0.33486,0.51005 0.0685,0.0949 0.10024,0.16381 0.0403,0.0434 0.0307,0.0367 0.057,0.0747 0.0816,0.11368 2.86074,-3.5919 4.90472,-7.9136 6.02082,-12.46952 0.59527,-2.94042 0.79139,-6.00637 0.69918,-8.9948 -0.0465,-4.38476 -0.52144,-9.04016 -2.81068,-12.75064 -1.85878,-3.44969 -4.82543,-6.18157 -8.29459,-7.48016 -1.42454,-0.53612 -2.92567,-0.79974 -4.42505,-0.79995 z m -12.94989,16.74539 c -0.68261,0.14999 -1.64911,0.18449 -2.07779,0.20738 0.2408,0.55397 0.40511,0.87801 0.5774,1.4637 0.71501,1.40161 1.0403,-0.62899 1.50039,-1.67108 z m -19.45433,31.03773 c -0.0058,0.002 -0.01236,0.0235 -0.01963,0.0785 0.05168,0.28276 0.04477,-0.0868 0.01963,-0.0785 z"
         style="opacity:1;fill:#ff0000;stroke-width:0.06896867"
         id="path862" />
      <path
         sodipodi:nodetypes="ccccccccccccccccccccccccccccccccccccccccccc"
         inkscape:connector-curvature="0"
         d="m 123.71653,116.13656 c -3.29864,-5.3e-4 -6.58739,1.27206 -9.02478,3.70985 -2.59481,2.31571 -4.02059,5.72131 -5.14593,9.03873 -0.35203,-1.0115 -0.7471,-3.40451 -1.69189,-4.67207 -1.52625,-2.7232 -3.60523,-5.19238 -6.19755,-6.66419 -2.373137,-1.80531 -5.413832,-1.36665 -8.154029,-1.33584 -3.119297,0.43682 -5.82603,2.43573 -8.052223,4.70721 -1.810094,2.12503 -3.2912,4.62731 -4.253487,7.35304 -1.286184,2.96881 -1.212638,6.34144 -1.273307,9.53637 0.03591,4.60672 0.696833,9.28486 2.484086,13.48031 1.85253,4.67552 5.055033,8.50777 8.283215,12.11812 0.533582,0.37305 -0.426863,-0.66495 -0.397391,-0.71778 -3.573833,-4.26489 -5.902812,-9.70174 -6.405811,-15.46262 -0.06675,-3.77938 -0.567127,-7.76939 0.754993,-11.3714 1.340038,-3.81107 3.587351,-7.51866 7.017661,-9.49813 2.22623,-1.8161 5.116494,-1.56949 7.75353,-1.50017 1.799283,-0.0863 3.319083,1.0592 4.728913,2.09031 1.4182,1.14946 2.58508,2.43081 3.54221,4.03356 0.10695,-0.0523 0.29502,-0.12848 0.39065,-0.17042 1.05034,-0.29296 2.22147,-0.73448 3.13437,-0.004 0.0412,0.0339 0.24616,0.29229 0.26047,0.33839 0.0258,-0.0279 0.059,-0.0753 0.085,-0.0958 1.59517,-3.05621 4.1492,-4.97449 7.19988,-5.91887 2.31493,-0.48307 4.84662,-0.52437 7.07864,0.3173 3.24844,1.2652 6.02266,3.96672 7.55923,7.31634 2.42238,4.52659 2.142,9.99201 1.93322,15.03526 -0.32706,3.56499 -1.59765,7.08935 -3.25613,10.16424 0.14573,0.28059 0.0864,0.2198 0.33486,0.51005 0.0685,0.0949 0.10023,0.1638 0.0403,0.0434 0.0307,0.0367 0.0571,0.0748 0.0816,0.11368 2.86075,-3.59191 4.90473,-7.9136 6.02082,-12.46952 0.59528,-2.94042 0.79139,-6.00637 0.69918,-8.9948 -0.0465,-4.38476 -0.52144,-9.04016 -2.81068,-12.75064 -1.85878,-3.4497 -4.82543,-6.18158 -8.29459,-7.48017 -1.42454,-0.53612 -2.92568,-0.79974 -4.42505,-0.79995 z m -12.9499,16.74539 c -0.68261,0.15 -1.6491,0.18449 -2.07779,0.20739 0.24081,0.55396 0.40512,0.878 0.57741,1.4637 0.71501,1.4016 1.04029,-0.629 1.50038,-1.67109 z m -19.454325,31.03773 c -0.0058,0.002 -0.01236,0.0236 -0.01963,0.0786 0.05168,0.28276 0.04477,-0.0868 0.01963,-0.0786 z"
         style="opacity:1;fill:#ff0000;stroke-width:0.06896867;filter:url(#filter1781)"
         id="path862-3" />
      <text
         id="text1862"
         y="153.14456"
         x="7.060257"
         style="font-size:35.27777863px;line-height:1.25;font-family:Alba;-inkscape-font-specification:Alba;letter-spacing:0px;word-spacing:0px;stroke-width:0.26458332"
         xml:space="preserve"><tspan
           dx="0 -4 -4 -4"
           style="font-style:normal;font-variant:normal;font-weight:normal;font-stretch:normal;font-family:RomanD;-inkscape-font-specification:RomanD;fill:#ffffff;stroke-width:0.26458332"
           y="153.14456"
           x="7.060257"
           id="tspan1860"
           sodipodi:role="line">Pear</tspan></text>
      <text
         id="text1866"
         y="173.49779"
         x="132.22836"
         style="font-size:35.27777863px;line-height:1.25;font-family:Alba;-inkscape-font-specification:Alba;letter-spacing:0px;word-spacing:0px;stroke-width:0.26458332"
         xml:space="preserve"><tspan
           dx="0 -4 -4 -4"
           style="font-style:normal;font-variant:normal;font-weight:normal;font-stretch:normal;font-family:RomanD;-inkscape-font-specification:RomanD;fill:#ffffff;stroke-width:0.26458332"
           y="173.49779"
           x="132.22836"
           id="tspan1864"
           sodipodi:role="line">Pair</tspan><tspan
           id="tspan1868"
           style="stroke-width:0.26458332"
           y="218.77359"
           x="132.22836"
           sodipodi:role="line" /></text>
      <text
         xml:space="preserve"
         style="font-size:35.27777863px;line-height:1.25;font-family:Alba;-inkscape-font-specification:Alba;letter-spacing:0px;word-spacing:0px;stroke-width:0.26458332"
         x="132.22836"
         y="173.49779"
         id="text1874"><tspan
           sodipodi:role="line"
           id="tspan1870"
           x="132.22836"
           y="173.49779"
           style="font-style:normal;font-variant:normal;font-weight:normal;font-stretch:normal;font-family:RomanD;-inkscape-font-specification:RomanD;fill:#ffffff;stroke-width:0.26458332"
           dx="0 -4 -4 -4">Pair</tspan><tspan
           sodipodi:role="line"
           x="132.22836"
           y="218.77359"
           style="stroke-width:0.26458332"
           id="tspan1872" /></text>
      <text
         xml:space="preserve"
         style="font-size:35.27777863px;line-height:1.25;font-family:Alba;-inkscape-font-specification:Alba;letter-spacing:0px;word-spacing:0px;stroke-width:0.26458332;filter:url(#filter1931)"
         x="132.95566"
         y="171.09837"
         id="text1874-8"><tspan
           sodipodi:role="line"
           id="tspan1870-9"
           x="132.95566"
           y="171.09837"
           style="font-style:normal;font-variant:normal;font-weight:normal;font-stretch:normal;font-family:RomanD;-inkscape-font-specification:RomanD;fill:#ffffff;stroke-width:0.26458332"
           dx="0 -4 -4 -4">Pair</tspan><tspan
           sodipodi:role="line"
           x="132.95566"
           y="216.37418"
           style="stroke-width:0.26458332"
           id="tspan1872-9" /></text>
      <text
         xml:space="preserve"
         style="font-size:35.27777863px;line-height:1.25;font-family:Alba;-inkscape-font-specification:Alba;letter-spacing:0px;word-spacing:0px;stroke-width:0.26458332"
         x="7.060257"
         y="153.14456"
         id="text1937"><tspan
           sodipodi:role="line"
           id="tspan1935"
           x="7.060257"
           y="153.14456"
           style="font-style:normal;font-variant:normal;font-weight:normal;font-stretch:normal;font-family:RomanD;-inkscape-font-specification:RomanD;fill:#ffffff;stroke-width:0.26458332"
           dx="0 -4 -4 -4">Pear</tspan></text>
      <text
         xml:space="preserve"
         style="font-size:35.27777863px;line-height:1.25;font-family:Alba;-inkscape-font-specification:Alba;letter-spacing:0px;word-spacing:0px;stroke-width:0.26458332;filter:url(#filter2039)"
         x="8.5253334"
         y="151.50958"
         id="text1937-1"><tspan
           sodipodi:role="line"
           id="tspan1935-5"
           x="8.5253334"
           y="151.50958"
           style="font-style:normal;font-variant:normal;font-weight:normal;font-stretch:normal;font-family:RomanD;-inkscape-font-specification:RomanD;fill:#ffffff;stroke-width:0.26458332"
           dx="0 -4 -4 -4">Pear</tspan></text>
    </g>
  </g>
</svg>
